<!-- Generated by IcoMoon.io -->
<svg version="1.1" xmlns="http://www.w3.org/2000/svg" width="448" height="448" viewBox="0 0 448 448">
<title></title>
<g id="icomoon-ignore">
</g>
<path fill="#000" d="M352 232v80c0 39.75-32.25 72-72 72h-208c-39.75 0-72-32.25-72-72v-208c0-39.75 32.25-72 72-72h176c4.5 0 8 3.5 8 8v16c0 4.5-3.5 8-8 8h-176c-22 0-40 18-40 40v208c0 22 18 40 40 40h208c22 0 40-18 40-40v-80c0-4.5 3.5-8 8-8h16c4.5 0 8 3.5 8 8zM448 16v128c0 8.75-7.25 16-16 16-4.25 0-8.25-1.75-11.25-4.75l-44-44-163 163c-1.5 1.5-3.75 2.5-5.75 2.5s-4.25-1-5.75-2.5l-28.5-28.5c-1.5-1.5-2.5-3.75-2.5-5.75s1-4.25 2.5-5.75l163-163-44-44c-3-3-4.75-7-4.75-11.25 0-8.75 7.25-16 16-16h128c8.75 0 16 7.25 16 16z"></path>
</svg>
